<svg width="148" height="45" viewBox="0 0 148 45" fill="none" xmlns="http://www.w3.org/2000/svg">
<path d="M135.768 27.0242C135.766 26.6357 135.655 26.3276 135.438 26.1004C135.223 25.8691 134.932 25.7546 134.569 25.7583C134.205 25.7599 133.92 25.8756 133.708 26.1076C133.499 26.3401 133.395 26.6482 133.397 27.0417C133.397 27.4294 133.506 27.7382 133.719 27.9711C133.932 28.2028 134.222 28.3156 134.584 28.314C134.945 28.3119 135.234 28.1947 135.447 27.961C135.663 27.7229 135.768 27.4131 135.768 27.0242Z" fill="#2E71B3"/>
<path fill-rule="evenodd" clip-rule="evenodd" d="M122.736 31.9123L126.403 21.2559L147.112 21.2677V31.9123H122.736ZM130.994 29.5391C131.19 29.4853 131.377 29.3976 131.553 29.2827L131.536 27.8429C131.399 28.0184 131.248 28.1454 131.083 28.2279C130.919 28.3083 130.732 28.3496 130.52 28.3496C130.137 28.3516 129.83 28.2351 129.603 28.0007C129.373 27.7658 129.258 27.4451 129.256 27.044C129.254 26.6539 129.361 26.3402 129.581 26.1003C129.804 25.861 130.098 25.7385 130.465 25.7369C130.67 25.7332 130.862 25.7761 131.044 25.8533C131.226 25.9337 131.388 26.0465 131.527 26.1941V24.809C131.355 24.7071 131.172 24.6327 130.981 24.5834C130.789 24.5385 130.574 24.5134 130.334 24.5162C129.614 24.5198 129.03 24.7588 128.582 25.2314C128.132 25.7082 127.91 26.3162 127.913 27.0654C127.917 27.8268 128.146 28.4466 128.599 28.9164C129.051 29.3931 129.633 29.6284 130.349 29.6248C130.581 29.6224 130.796 29.5928 130.994 29.5391ZM125.738 28.183C125.585 28.3496 125.509 28.5501 125.512 28.785C125.513 29.0086 125.59 29.2031 125.748 29.3636C125.903 29.5237 126.089 29.5997 126.308 29.5997C126.531 29.5997 126.718 29.5201 126.87 29.3599C127.023 29.1994 127.1 28.9997 127.097 28.7741C127.097 28.5404 127.017 28.339 126.86 28.1741C126.704 28.0148 126.517 27.9323 126.3 27.9323C126.079 27.9343 125.894 28.0192 125.738 28.183ZM137.105 27.0242C137.108 27.7552 136.876 28.3657 136.405 28.8549C135.931 29.3438 135.331 29.5892 134.602 29.5928C133.866 29.5997 133.258 29.36 132.778 28.8809C132.3 28.3973 132.056 27.7908 132.051 27.0602C132.049 26.3312 132.286 25.7224 132.761 25.2291C133.239 24.741 133.841 24.4903 134.57 24.4867C135.302 24.4847 135.907 24.716 136.384 25.1983C136.861 25.6758 137.1 26.2847 137.105 27.0242ZM137.904 29.3814L139.22 29.3741L139.208 27.2789C139.202 26.6858 139.281 26.2544 139.436 25.9883C139.591 25.7207 139.841 25.5845 140.188 25.5845C140.443 25.5809 140.626 25.6787 140.731 25.8735C140.836 26.0717 140.891 26.4521 140.894 27.0065L140.907 29.3636L142.225 29.3527L142.211 27.2572C142.21 26.6571 142.281 26.222 142.432 25.958C142.583 25.69 142.826 25.5578 143.165 25.5542C143.444 25.5505 143.641 25.6455 143.756 25.8371C143.869 26.0276 143.925 26.41 143.931 26.9902L143.945 29.341L145.263 29.3321L145.243 26.5515V26.4012C145.241 26.0538 145.223 25.7923 145.196 25.6221C145.167 25.4538 145.121 25.2962 145.054 25.1644C144.93 24.9145 144.754 24.7301 144.532 24.6048C144.308 24.4847 144.037 24.4229 143.718 24.4256C143.398 24.4256 143.109 24.5134 142.842 24.6763C142.579 24.8393 142.341 25.0868 142.135 25.409C142.033 25.0839 141.867 24.8413 141.628 24.6821C141.395 24.5223 141.087 24.4434 140.713 24.4463C140.401 24.4491 140.124 24.5222 139.881 24.6683C139.638 24.8162 139.408 25.0479 139.194 25.3624L139.19 24.6173L137.875 24.6238L137.904 29.3814Z" fill="#2E71B3"/>
<path d="M112.542 7.21271C112.289 7.49029 112.158 7.86368 112.158 8.33931V17.5127C112.158 20.5286 110.864 22.0366 108.256 22.0366C105.655 22.0366 104.351 20.5286 104.351 17.5127V8.33931C104.351 7.86368 104.22 7.49029 103.972 7.21271C103.719 6.94589 103.368 6.80984 102.947 6.80984C102.536 6.80984 102.184 6.94589 101.934 7.21904C101.687 7.49211 101.556 7.86368 101.556 8.35007V17.6542C101.556 18.9114 101.751 19.9869 102.132 20.8645C102.513 21.7501 103.012 22.4664 103.632 23.0191C104.265 23.5758 104.972 23.9737 105.785 24.2126C106.579 24.4552 107.406 24.5725 108.256 24.5725C109.103 24.5725 109.929 24.4552 110.734 24.2126C111.539 23.9737 112.255 23.5758 112.877 23.0191C113.509 22.4664 114.01 21.7501 114.389 20.8645C114.772 19.9869 114.965 18.9114 114.965 17.6542V8.35007C114.965 7.86368 114.835 7.49211 114.587 7.21904C114.323 6.94589 113.986 6.80984 113.564 6.80984C113.139 6.80984 112.802 6.94589 112.542 7.21271Z" fill="#2E71B3"/>
<path d="M127.491 7.08821C127.271 7.30145 127.117 7.5602 127.008 7.87359L123.166 20.0702H123.101L119.194 7.87359C119.086 7.5602 118.909 7.30145 118.678 7.08821C118.439 6.8814 118.142 6.7704 117.78 6.7704C117.462 6.7704 117.163 6.88582 116.888 7.1072C116.626 7.33284 116.492 7.63278 116.492 8.008C116.492 8.18351 116.518 8.37593 116.561 8.57381C116.606 8.77464 116.714 9.1326 116.879 9.64752L121.685 24.116L119.897 29.0956C119.722 29.6087 119.611 29.9652 119.559 30.1642C119.502 30.3664 119.48 30.5608 119.48 30.7355C119.48 31.1115 119.611 31.4131 119.877 31.6371C120.136 31.8583 120.434 31.9695 120.763 31.9695C121.125 31.9695 121.412 31.8672 121.64 31.6505C121.86 31.4394 122.025 31.1778 122.136 30.8677L129.258 9.64752C129.424 9.1326 129.531 8.77464 129.574 8.57381C129.621 8.37593 129.643 8.18351 129.643 8.008C129.643 7.63278 129.508 7.33284 129.236 7.1072C128.971 6.88582 128.677 6.7704 128.361 6.7704C127.994 6.7704 127.697 6.8814 127.491 7.08821Z" fill="#2E71B3"/>
<path d="M95.9054 20.7131C94.9839 21.5368 93.8172 21.9526 92.3912 21.9526H88.3263V12.8883H92.5263C93.2908 12.8883 93.9625 13.0012 94.5471 13.234C95.1182 13.4651 95.6265 13.782 96.0304 14.1975C96.4451 14.6095 96.7586 15.0949 96.9731 15.6493C97.1751 16.1981 97.2858 16.7837 97.2858 17.4051C97.2858 18.7807 96.8269 19.8848 95.9054 20.7131ZM88.3263 2.65486H91.7061C92.997 2.65486 93.9397 3.00944 94.5572 3.72388C95.1772 4.42783 95.4789 5.34111 95.4789 6.44456C95.4789 7.57281 95.1425 8.51037 94.4779 9.27068C93.8054 10.0281 92.8516 10.406 91.6056 10.406H88.3263V2.65486ZM99.7786 15.1288C99.5116 14.4197 99.1501 13.7999 98.6905 13.2698C98.2286 12.7379 97.692 12.3045 97.0831 11.9562C96.4656 11.6168 95.8166 11.4071 95.1182 11.3392V11.2676C96.0736 10.9442 96.86 10.3075 97.4665 9.35558C98.0613 8.40544 98.3661 7.24849 98.3661 5.88924C98.3661 5.20324 98.2286 4.50926 97.9489 3.80271C97.6795 3.1043 97.2858 2.47571 96.7586 1.9079C96.2315 1.34729 95.5801 0.89169 94.7843 0.55038C94.0081 0.202914 93.0975 0.0284424 92.066 0.0284424H86.9899C86.4384 0.0284424 86.0471 0.192162 85.8012 0.514567C85.5631 0.835065 85.4414 1.22641 85.4414 1.68314V22.9176C85.4414 23.3818 85.5631 23.7666 85.8012 24.0909C86.0471 24.4152 86.4384 24.5725 86.9899 24.5725H92.5263C93.7488 24.5725 94.8393 24.38 95.7837 23.9886C96.7366 23.5929 97.5364 23.0737 98.1861 22.4147C98.8264 21.7635 99.3174 21.0068 99.6553 20.1454C99.9931 19.2838 100.161 18.3723 100.161 17.4051C100.161 16.6038 100.037 15.8469 99.7786 15.1288Z" fill="#2E71B3"/>
<path d="M35.3597 7.31169C34.5328 7.67433 33.8167 8.26894 33.2047 9.12056L33.1394 9.05327V8.34776C33.1394 7.86137 33.0112 7.48269 32.7619 7.19523C32.5003 6.92208 32.1619 6.77978 31.7383 6.77978C31.3136 6.77978 30.9766 6.91584 30.728 7.19081C30.4771 7.46474 30.3466 7.83363 30.3466 8.32166V23.0066C30.3466 23.4894 30.4771 23.8646 30.728 24.1351C30.9766 24.4072 31.3136 24.5406 31.7383 24.5406C32.1619 24.5406 32.5003 24.4072 32.7619 24.1351C33.0112 23.8646 33.1394 23.4959 33.1394 23.0139V13.5818C33.1394 12.8207 33.2612 12.1695 33.4897 11.6288C33.7177 11.0862 34.0226 10.6491 34.3926 10.3123C34.7626 9.97028 35.1849 9.72505 35.6449 9.56376C36.123 9.39996 36.5782 9.31671 37.0469 9.31671C37.5163 9.31671 37.9821 9.39996 38.4501 9.56376C38.9175 9.72505 39.3311 9.97028 39.7 10.3123C40.07 10.6491 40.3745 11.0862 40.6011 11.6288C40.831 12.1695 40.9605 12.8207 40.9605 13.5818V23.0139C40.9605 23.4959 41.0831 23.8646 41.333 24.1351C41.5915 24.4072 41.9297 24.5406 42.3531 24.5406C42.777 24.5406 43.1148 24.4072 43.3658 24.1351C43.627 23.8646 43.7449 23.4894 43.7449 23.0066V13.374C43.7449 12.1598 43.5611 11.1309 43.1926 10.2927C42.8222 9.45268 42.3531 8.77231 41.7772 8.24743C41.2124 7.72792 40.5678 7.35193 39.8964 7.12352C39.1987 6.89338 38.5255 6.77978 37.8745 6.77978C37.0245 6.77978 36.1862 6.96232 35.3597 7.31169Z" fill="#F18436"/>
<path d="M81.4224 7.04746C81.153 7.21846 80.9125 7.61874 80.7271 8.24742L77.1406 20.1019H77.0738L73.5508 8.67284C73.354 8.04329 73.1568 7.57226 72.9627 7.25081C72.7554 6.93829 72.4065 6.77977 71.897 6.77977C71.386 6.77977 71.0379 6.93829 70.8308 7.25081C70.6353 7.57226 70.4392 8.04329 70.2436 8.67284L66.7211 20.1019H66.6563L63.0663 8.24742C62.8809 7.61874 62.6409 7.21846 62.3706 7.04746C62.0878 6.86658 61.8046 6.77977 61.5092 6.77977C61.0205 6.77977 60.6716 6.92207 60.4772 7.20511C60.2827 7.48797 60.1724 7.77283 60.1724 8.05396C60.1724 8.20883 60.1945 8.37905 60.2361 8.56081C60.2827 8.74542 60.337 8.9486 60.4006 9.1679L65.0344 23.0398C65.2284 23.6067 65.4398 23.9972 65.6888 24.2156C65.9351 24.4359 66.2513 24.5406 66.6563 24.5406C67.0366 24.5406 67.3505 24.4359 67.6128 24.2156C67.8599 23.9972 68.08 23.6067 68.2414 23.0398L71.8636 11.3189H71.93L75.5513 23.0398C75.7155 23.6067 75.9339 23.9972 76.1829 24.2156C76.4437 24.4359 76.7603 24.5406 77.1406 24.5406C77.5421 24.5406 77.8571 24.4359 78.1077 24.2156C78.3576 23.9972 78.5657 23.6067 78.7591 23.0398L83.3944 9.1679C83.4588 8.9486 83.5131 8.74542 83.5578 8.56081C83.5994 8.37905 83.6222 8.20883 83.6222 8.05396C83.6222 7.77283 83.5131 7.48797 83.3158 7.20511C83.1108 6.92207 82.7729 6.77977 82.2843 6.77977C81.9904 6.77977 81.7068 6.86658 81.4224 7.04746Z" fill="#F18436"/>
<path d="M48.2569 14.5981C48.2793 13.9516 48.3751 13.3069 48.5617 12.664C48.7346 12.021 49.017 11.4496 49.3973 10.9411C49.7771 10.4431 50.2666 10.0321 50.8636 9.72037C51.4548 9.40889 52.1796 9.27179 53.0509 9.31671C53.8149 9.31671 54.4878 9.47965 55.0539 9.79841C55.6309 10.1225 56.0961 10.5381 56.4574 11.0421C56.815 11.5447 57.0863 12.105 57.2616 12.732C57.445 13.3552 57.533 13.975 57.533 14.5981H48.2569ZM60.0109 16.4054C60.2172 16.1474 60.33 15.7641 60.33 15.2547C60.33 14.2139 60.1642 13.1798 59.8385 12.1643C59.5124 11.1523 59.0344 10.2444 58.4247 9.44912C57.8072 8.65222 57.0416 8.00567 56.1393 7.51486C55.2271 7.02865 54.194 6.77978 53.0509 6.77978C51.865 6.77978 50.8008 7.02319 49.8659 7.50047C48.9199 7.98226 48.1281 8.62897 47.483 9.43837C46.8321 10.2569 46.3438 11.2035 45.9828 12.2807C45.6356 13.3588 45.4635 14.4898 45.4635 15.6621C45.4635 16.8171 45.6128 17.9258 45.9055 18.9942C46.1992 20.0571 46.6703 21.0045 47.3 21.8363C47.9391 22.6601 48.7436 23.3212 49.7139 23.8084C50.6919 24.3017 51.8548 24.5406 53.2143 24.5406C54.0424 24.5406 54.8579 24.4234 55.6624 24.1788C56.4574 23.9326 57.1853 23.6301 57.8379 23.2618C58.4805 22.8923 59.0022 22.4956 59.3934 22.0727C59.7855 21.6546 59.9784 21.2625 59.9784 20.906C59.9784 20.4851 59.8719 20.1574 59.6649 19.9353C59.4476 19.7149 59.2158 19.5995 58.9585 19.5995C58.7083 19.5995 58.4365 19.7221 58.1537 19.9674C57.87 20.2156 57.5228 20.4922 57.0974 20.7851C56.6964 21.0869 56.1727 21.3689 55.565 21.6189C54.9463 21.8784 54.1724 22.0074 53.2489 22.0074C52.4526 22.0074 51.7581 21.8695 51.1472 21.6008C50.5278 21.334 50.0096 20.9721 49.5713 20.494C49.1364 20.023 48.8116 19.4697 48.5947 18.8391C48.3641 18.207 48.2569 17.5263 48.2569 16.7966H58.7712C59.3836 16.7966 59.7968 16.6657 60.0109 16.4054Z" fill="#F18436"/>
<path d="M16.6872 14.5981C16.712 13.9516 16.8078 13.3069 16.9944 12.664C17.1688 12.021 17.4503 11.4496 17.8303 10.9411C18.2088 10.4431 18.7036 10.0321 19.2981 9.72037C19.8868 9.40889 20.615 9.27179 21.4863 9.31671C22.2472 9.31671 22.9227 9.47965 23.487 9.79841C24.0636 10.1225 24.5183 10.5381 24.8889 11.0421C25.2482 11.5447 25.521 12.105 25.6947 12.732C25.8781 13.3552 25.9665 13.975 25.9665 14.5981H16.6872ZM28.4483 16.4054C28.6522 16.1474 28.7618 15.7641 28.7618 15.2547C28.7618 14.2139 28.5966 13.1798 28.2716 12.1643C27.9449 11.1523 27.4687 10.2444 26.857 9.44912C26.2383 8.65222 25.477 8.00567 24.5631 7.51486C23.6622 7.02865 22.6291 6.77978 21.4863 6.77978C20.3008 6.77978 19.2347 7.02319 18.2986 7.50047C17.3529 7.98226 16.5571 8.62897 15.9199 9.43837C15.2638 10.2569 14.7735 11.2035 14.4155 12.2807C14.0688 13.3588 13.8926 14.4898 13.8926 15.6621C13.8926 16.8171 14.0455 17.9258 14.3403 18.9942C14.6318 20.0571 15.0998 21.0045 15.731 21.8363C16.3731 22.6601 17.177 23.3212 18.1575 23.8084C19.1258 24.3017 20.2879 24.5406 21.6507 24.5406C22.4758 24.5406 23.2915 24.4234 24.095 24.1788C24.9011 23.9326 25.6189 23.6301 26.2719 23.2618C26.9144 22.8923 27.4339 22.4956 27.8253 22.0727C28.216 21.6546 28.413 21.2625 28.413 20.906C28.413 20.4851 28.3056 20.1574 28.0982 19.9353C27.8801 19.7149 27.6521 19.5995 27.3934 19.5995C27.1397 19.5995 26.8692 19.7221 26.586 19.9674C26.3027 20.2156 25.9453 20.4922 25.5414 20.7851C25.1292 21.0869 24.6067 21.3689 23.9988 21.6189C23.3785 21.8784 22.6047 22.0074 21.6815 22.0074C20.899 22.0074 20.1894 21.8695 19.5827 21.6008C18.9625 21.334 18.4408 20.9721 18.0053 20.494C17.5706 20.023 17.243 19.4697 17.0274 18.8391C16.7986 18.207 16.6872 17.5263 16.6872 16.7966H27.2062C27.8167 16.7966 28.2282 16.6657 28.4483 16.4054Z" fill="#F18436"/>
<path d="M2.88691 2.62382H6.75971C7.43362 2.62382 8.04039 2.73481 8.57714 2.96591C9.11845 3.19874 9.56649 3.49773 9.95926 3.87919C10.3435 4.26255 10.6361 4.6996 10.8359 5.20983C11.049 5.70956 11.1495 6.25136 11.1495 6.82367C11.1495 8.41567 10.8031 9.56369 10.1176 10.2739C9.43405 10.9859 8.33223 11.3387 6.82812 11.3387H2.88691V2.62382ZM13.8675 22.0406L6.43425 13.6158L7.68106 13.5808C8.54631 13.5379 9.36589 13.3831 10.1401 13.117C10.904 12.8555 11.5771 12.44 12.1509 11.8956C12.7339 11.3387 13.194 10.6383 13.5312 9.77155C13.8675 8.9083 14.0341 7.8587 14.0341 6.61946C14.0341 5.61192 13.8321 4.6996 13.4299 3.8954C13.026 3.09485 12.5001 2.40078 11.8354 1.80887C11.1861 1.22406 10.4199 0.77549 9.56649 0.47008C8.70032 0.157733 7.80466 0 6.8972 0H1.53916C1.0019 0 0.606936 0.162937 0.361095 0.482568C0.125364 0.79873 0 1.18565 0 1.64134V22.9371C0 23.4376 0.135726 23.8306 0.393615 24.1217C0.662962 24.4028 1.01193 24.5406 1.44952 24.5406C1.88711 24.5406 2.23599 24.4028 2.49405 24.1217C2.75236 23.8306 2.88691 23.4376 2.88691 22.9371V13.674L11.8011 23.8585C11.9833 24.0385 12.1734 24.1993 12.3611 24.3401C12.5659 24.4779 12.8112 24.5406 13.117 24.5406C13.485 24.5406 13.7995 24.4307 14.0588 24.2038C14.3059 23.9811 14.4298 23.7097 14.4298 23.3919C14.4298 22.8938 14.2493 22.4491 13.8675 22.0406Z" fill="#F18436"/>
<path d="M5.31174 38.8536C5.23701 38.8301 5.15941 38.8071 5.08056 38.7838C4.43689 38.5934 3.77123 38.3966 3.77123 37.6406C3.77123 37.0051 4.25651 36.5258 4.90001 36.5258C5.5072 36.5258 6.00124 37.047 6.00124 37.6877V37.7863H6.86901V37.6877C6.86901 36.5722 6.0041 35.6984 4.90001 35.6984C3.76171 35.6984 2.90337 36.5455 2.90337 37.6687C2.90337 38.9385 3.76584 39.3055 4.72654 39.5973C5.45471 39.8196 6.16561 40.11 6.16561 40.9888C6.16561 41.7088 5.60973 42.2728 4.90001 42.2728C4.12634 42.2728 3.62371 41.7576 3.58824 40.9281L3.58428 40.8338H2.71912L2.72055 40.9339C2.73925 42.2095 3.6355 43.1004 4.90001 43.1004C6.09636 43.1004 7.03347 42.1605 7.03347 40.9607C7.03347 39.9322 6.43799 39.2036 5.31174 38.8536Z" fill="#747577"/>
<path d="M13.4992 37.5042C12.8073 37.5042 12.2302 37.8157 11.8214 38.4071C11.452 37.8312 10.8461 37.5042 10.1362 37.5042C9.628 37.5042 9.18071 37.6959 8.87059 38.0386V37.6359H8.03904V42.978H8.87059V39.8978C8.87059 39.4156 8.99385 38.294 10.1362 38.294C11.2787 38.294 11.402 39.4156 11.402 39.8978V42.978H12.2333V39.8978C12.2333 39.4156 12.3567 38.294 13.4992 38.294C14.6415 38.294 14.7648 39.4156 14.7648 39.8978V42.978H15.5962V39.8225C15.5962 38.4359 14.7534 37.5042 13.4992 37.5042Z" fill="#747577"/>
<path d="M21.4456 40.3118C21.4456 41.4325 20.6087 42.3104 19.5402 42.3104C18.4096 42.3104 17.589 41.4737 17.589 40.321C17.589 39.1464 18.4096 38.294 19.5402 38.294C20.5908 38.294 21.4456 39.1993 21.4456 40.3118ZM21.4091 38.3595C20.9723 37.8127 20.3057 37.5042 19.5402 37.5042C17.9799 37.5042 16.7577 38.7292 16.7577 40.2929C16.7577 41.8671 17.9799 43.1004 19.5402 43.1004C20.2938 43.1004 20.961 42.7923 21.4091 42.2463V42.978H22.2404V37.6359H21.4091V38.3595Z" fill="#747577"/>
<path d="M24.4065 38.1299V37.6359H23.5752V42.978H24.4065V39.8696C24.4065 39.0195 24.9066 38.469 25.7442 38.3971L25.8321 38.3896V37.497L25.7296 37.5045C25.2328 37.5406 24.7367 37.6477 24.4065 38.1299Z" fill="#747577"/>
<path d="M28.1076 35.8208H27.2763V37.6359H26.2253V38.4258H27.2763V42.978H28.1076V38.4258H29.3046V37.6359H28.1076V35.8208Z" fill="#747577"/>
<path d="M31.9644 36.6482H33.5179V42.978H34.386V36.6482H35.9303V35.8208H31.9644V36.6482Z" fill="#747577"/>
<path d="M40.5799 39.8557H36.9097C37.1007 38.9441 37.8541 38.2941 38.7407 38.2941C39.6384 38.2941 40.38 38.9304 40.5799 39.8557ZM38.7315 37.5043C37.2477 37.5043 36.0405 38.7637 36.0405 40.3118C36.0405 41.8495 37.2518 43.1004 38.7407 43.1004C39.8832 43.1004 40.9075 42.3482 41.2894 41.2286L41.3342 41.0972H40.4559L40.4326 41.1616C40.1855 41.8488 39.5018 42.3104 38.7315 42.3104C37.8272 42.3104 36.9955 41.5438 36.898 40.6455H41.441V40.5469C41.441 40.5166 41.4431 40.4885 41.4452 40.4603C41.4477 40.4272 41.45 40.3942 41.45 40.3587C41.45 38.7847 40.2304 37.5043 38.7315 37.5043Z" fill="#747577"/>
<path d="M46.8531 41.3196C46.5392 41.94 45.9117 42.3104 45.1743 42.3104C44.0701 42.3104 43.2051 41.4242 43.2051 40.2929C43.2051 39.172 44.0701 38.294 45.1743 38.294C45.8921 38.294 46.5198 38.6823 46.8533 39.3325L46.8803 39.3851H47.7835L47.7307 39.2496C47.3168 38.1893 46.3062 37.5042 45.1561 37.5042C43.6219 37.5042 42.3737 38.7637 42.3737 40.3118C42.3737 41.8755 43.5959 43.1004 45.1561 43.1004C46.3074 43.1004 47.1724 42.5316 47.7272 41.4099L47.7981 41.2665H46.8799L46.8531 41.3196Z" fill="#747577"/>
<path d="M51.1328 37.5042C50.556 37.5042 50.0198 37.7382 49.6751 38.128V35.8208H48.8438V42.978H49.6751V40.0013C49.6751 39.7406 49.7176 39.0929 50.1108 38.7095C50.3845 38.4454 50.757 38.294 51.1328 38.294C51.5087 38.294 51.8811 38.4454 52.1543 38.7091C52.5561 39.1014 52.5995 39.7763 52.5995 40.0484V42.978H53.431V40.0484C53.431 38.4791 52.5504 37.5042 51.1328 37.5042Z" fill="#747577"/>
<path d="M54.292 43.6082H55.179L56.0705 41.5956H55.1836L54.292 43.6082Z" fill="#747577"/>
<path d="M64.516 38.1672C64.516 37.2605 64.0448 36.4854 63.2555 36.0938C62.7663 35.8518 62.0874 35.8207 61.5507 35.8207H59.7369V42.978H60.605V36.6482H61.6877C62.1203 36.6482 62.543 36.6674 62.9582 36.8996C63.3644 37.1253 63.6482 37.639 63.6482 38.1485C63.6482 38.798 63.247 39.3277 62.6006 39.531C62.2625 39.6391 61.7665 39.6347 61.3683 39.6311C61.3009 39.6305 61.2364 39.6299 61.176 39.6299H60.9845L63.4219 42.978H64.5125L62.5894 40.3643C63.7158 40.2106 64.516 39.3116 64.516 38.1672Z" fill="#747577"/>
<path d="M65.6043 37.203H66.4356V35.8208H65.6043V37.203Z" fill="#747577"/>
<path d="M65.6043 42.978H66.4356V37.6359H65.6043V42.978Z" fill="#747577"/>
<path d="M72.1382 40.3118C72.1382 41.4139 71.2916 42.3104 70.251 42.3104C69.2155 42.3104 68.3731 41.4139 68.3731 40.3118C68.3731 39.1993 69.2155 38.294 70.251 38.294C71.2916 38.294 72.1382 39.1993 72.1382 40.3118ZM72.1017 38.3791C71.6572 37.8199 70.9965 37.5042 70.251 37.5042C68.757 37.5042 67.5416 38.7721 67.5416 40.3305C67.5416 41.8578 68.757 43.1004 70.251 43.1004C71.0099 43.1004 71.7042 42.772 72.1017 42.2438V42.3904C72.1017 43.5131 71.4451 44.2105 70.388 44.2105C69.5575 44.2105 68.9072 43.7601 68.6039 42.9746L68.5799 42.9124H67.7106L67.7465 43.0387C68.0901 44.2486 69.1057 45.0002 70.3973 45.0002C71.2185 45.0002 72.0076 44.6213 72.4565 44.0112L72.4568 44.0109C72.8961 43.408 72.933 42.7218 72.933 42.0706V37.6359H72.1017V38.3791Z" fill="#747577"/>
<path d="M76.575 37.5042C75.9981 37.5042 75.4619 37.7382 75.1173 38.128V35.8208H74.286V42.978H75.1173V40.0013C75.1173 39.7405 75.1598 39.0928 75.5529 38.7095C75.8266 38.4454 76.1991 38.294 76.575 38.294C76.9508 38.294 77.3233 38.4454 77.5963 38.7091C77.9982 39.1014 78.0416 39.7763 78.0416 40.0484V42.978H78.8731V40.0484C78.8731 38.4791 77.9925 37.5042 76.575 37.5042Z" fill="#747577"/>
<path d="M81.6696 35.8208H80.8383V37.6359H79.7873V38.4258H80.8383V42.978H81.6696V38.4258H82.8666V37.6359H81.6696V35.8208Z" fill="#747577"/>
<path d="M90.2576 39.8086H87.9239L89.1031 36.9631L90.2576 39.8086ZM88.6569 35.8208L85.6874 42.978H86.5989L87.586 40.6361H90.6034L91.5813 42.978H92.5299L89.5417 35.8208H88.6569Z" fill="#747577"/>
<path d="M97.7994 40.3118C97.7994 41.4325 96.9624 42.3104 95.8941 42.3104C94.7635 42.3104 93.9429 41.4737 93.9429 40.321C93.9429 39.1464 94.7635 38.294 95.8941 38.294C96.9447 38.294 97.7994 39.1993 97.7994 40.3118ZM97.7627 38.3542C97.3106 37.8178 96.6299 37.5042 95.8941 37.5042C94.3338 37.5042 93.1115 38.7292 93.1115 40.2929C93.1115 41.8671 94.3338 43.1004 95.8941 43.1004C96.6217 43.1004 97.3154 42.7775 97.7627 42.2434V42.978H98.5943V35.8208H97.7627V38.3542Z" fill="#747577"/>
<path d="M101.99 41.8078L100.29 37.6359H99.3961L101.588 42.978H102.419L104.611 37.6359H103.717L101.99 41.8078Z" fill="#747577"/>
<path d="M105.403 37.203H106.235V35.8208H105.403V37.203Z" fill="#747577"/>
<path d="M105.403 42.978H106.235V37.6359H105.403V42.978Z" fill="#747577"/>
<path d="M111.856 41.3196C111.543 41.94 110.915 42.3104 110.178 42.3104C109.073 42.3104 108.208 41.4242 108.208 40.2929C108.208 39.172 109.073 38.294 110.178 38.294C110.896 38.294 111.523 38.6823 111.857 39.3325L111.884 39.3851H112.787L112.734 39.2496C112.32 38.1893 111.31 37.5042 110.159 37.5042C108.625 37.5042 107.377 38.7637 107.377 40.3118C107.377 41.8755 108.599 43.1004 110.159 43.1004C111.311 43.1004 112.176 42.5316 112.731 41.4099L112.801 41.2665H111.883L111.856 41.3196Z" fill="#747577"/>
<path d="M118.167 39.8557H114.497C114.688 38.9441 115.442 38.2941 116.328 38.2941C117.226 38.2941 117.967 38.9304 118.167 39.8557ZM116.319 37.5043C114.835 37.5043 113.628 38.7637 113.628 40.3118C113.628 41.8495 114.839 43.1004 116.328 43.1004C117.471 43.1004 118.495 42.3482 118.877 41.2286L118.922 41.0972H118.043L118.02 41.1616C117.773 41.8488 117.089 42.3104 116.319 42.3104C115.415 42.3104 114.583 41.5438 114.485 40.6455H119.029V40.5469C119.029 40.5166 119.031 40.4884 119.033 40.4603C119.035 40.4272 119.037 40.3942 119.037 40.3587C119.037 38.7847 117.818 37.5043 116.319 37.5043Z" fill="#747577"/>
</svg>
